<svg xmlns="http://www.w3.org/2000/svg" width="1632" height="720" viewBox="0 0 1632 720" role="img" aria-labelledby="diagram-title diagram-desc" data-motion-profile="showcase-v1" data-motion-sequence="staged" data-motion-edge="packet-flow" data-motion-node="icon-performance" data-motion-group="border-scan" data-motion-title="highlight-sweep" data-motion-reduced="subtle" data-icon-system="illustrated" data-icon-system-version="2.5.0">
<title id="diagram-title">Research Reasoning Loop</title>
<desc id="diagram-desc">questions cycle through evidence and critique</desc>
<style>
  .title { font: 700 42px ui-sans-serif, system-ui, -apple-system, BlinkMacSystemFont, "Segoe UI", sans-serif; letter-spacing: 0; }
  .subtitle { font: 400 16px ui-sans-serif, system-ui, -apple-system, BlinkMacSystemFont, "Segoe UI", sans-serif; }
  .node-title { font: 700 18px ui-sans-serif, system-ui, -apple-system, BlinkMacSystemFont, "Segoe UI", sans-serif; }
  .node-caption { font: 400 13px ui-sans-serif, system-ui, -apple-system, BlinkMacSystemFont, "Segoe UI", sans-serif; opacity: 0.84; }
  .group-label { font: 700 14px ui-sans-serif, system-ui, -apple-system, BlinkMacSystemFont, "Segoe UI", sans-serif; text-transform: uppercase; letter-spacing: 0.08em; }
  .edge-label { font: 600 13px ui-sans-serif, system-ui, -apple-system, BlinkMacSystemFont, "Segoe UI", sans-serif; }
  .step-label { font: 700 12px ui-sans-serif, system-ui, -apple-system, BlinkMacSystemFont, "Segoe UI", sans-serif; }
  .edge-flow { stroke-linecap: round; }
  .edge-draw, .edge-base { stroke-linecap: butt; stroke-linejoin: round; }
  .edge-particle { filter: url(#particle-glow); }
  .edge-arrow-particle { filter: url(#particle-glow); }
  .semantic-icon { vector-effect: non-scaling-stroke; }
  .semantic-icon-breathe { transform-box: fill-box; transform-origin: center; animation: semanticIconBreathe 2.8s ease-in-out infinite; }
  .icon-breathe-halo { pointer-events: none; filter: url(#particle-glow); }
  .node-glow, .node-burst { pointer-events: none; }
  #title-accent { transform-origin: 50px 70px; animation: titlePulse 4.8s ease-in-out infinite; }
  #title-highlight { transform-origin: 252px 74px; animation: titleSlide 5.6s ease-in-out infinite; }
  @keyframes titlePulse { 0%, 100% { opacity: 0.76; } 50% { opacity: 1; } }
  @keyframes titleSlide { 0%, 100% { transform: translateX(0); opacity: 0.9; } 50% { transform: translateX(8px); opacity: 1; } }
  @keyframes semanticIconBreathe { 0%, 100% { transform: scale(0.96); opacity: 0.72; } 50% { transform: scale(1.08); opacity: 1; } }
  @media (prefers-reduced-motion: reduce) {
    #title-accent, #title-highlight, .semantic-icon-breathe { animation: none; }
  }
</style>
<rect width="100%" height="100%" fill="#fbfaf7" />
<defs>
  <filter id="soft-glow" x="-40%" y="-40%" width="180%" height="180%">
    <feGaussianBlur stdDeviation="5" result="blur" />
    <feMerge>
      <feMergeNode in="blur" />
      <feMergeNode in="SourceGraphic" />
    </feMerge>
  </filter>
  <filter id="particle-glow" x="-80%" y="-80%" width="260%" height="260%">
    <feGaussianBlur stdDeviation="2.6" result="blur" />
    <feMerge>
      <feMergeNode in="blur" />
      <feMergeNode in="SourceGraphic" />
    </feMerge>
  </filter>
  <pattern id="grid" width="32" height="32" patternUnits="userSpaceOnUse">
    <path d="M 32 0 L 0 0 0 32" fill="none" stroke="#ece7df" stroke-width="1" />
  </pattern>
</defs>
<rect width="100%" height="100%" fill="url(#grid)" opacity="0.52" />
<rect x="28" y="26" width="1576" height="668" rx="26" fill="none" stroke="#a8a29e" stroke-width="1.4" opacity="1.00" />
<rect id="title-accent" x="44" y="44" width="12" height="52" rx="6" fill="#c2410c" />
<rect id="title-highlight" x="72" y="46" width="360" height="56" rx="16" fill="#fff4e6" />

<rect class="title-sweep" x="72" y="46" width="0" height="56" rx="16" fill="#c2410c" opacity="0.16">
  <animate attributeName="width" values="0;360;0" dur="3.20s" begin="0.34s" repeatCount="indefinite" />
  <animate attributeName="x" values="72;72;432" dur="3.20s" begin="0.34s" repeatCount="indefinite" />
</rect>
<text id="main-title" x="90" y="84" class="title" fill="#2f2a24" opacity="0">
  <animate attributeName="opacity" values="0;1" dur="0.65s" begin="0.08s" fill="freeze" />
  Research Reasoning Loop
</text>
<text x="74" y="126" class="subtitle" fill="#706a61" opacity="0">
  <animate attributeName="opacity" values="0;1" dur="0.65s" begin="0.28s" fill="freeze" />
  questions cycle through evidence and critique
</text>

<g id="group-loop" class="group" opacity="0">
  <animate attributeName="opacity" values="0;1" dur="0.70s" begin="0.17s" fill="freeze" />
  <rect x="262.0" y="90.0" width="988.0" height="500.0" rx="22"
        fill="#ffffff" fill-opacity="0.34" stroke="#a8a29e" stroke-width="1.6" stroke-dasharray="9 8">
    <animate attributeName="stroke-dashoffset" values="0;-34" dur="5.60s" begin="0.17s" repeatCount="indefinite" />
  </rect>

  <rect class="group-border-scan" x="262.0" y="90.0" width="988.0" height="500.0" rx="22"
        fill="none" stroke="#a8a29e" stroke-width="3.4" stroke-linecap="round"
        stroke-dasharray="178.6 1041.6" opacity="0.72" filter="url(#soft-glow)">
    <animate attributeName="stroke-dashoffset" values="0;-2976.0" dur="7.15s" begin="0.27s" repeatCount="indefinite" />
  </rect>

  <text x="280.0" y="120.0" class="group-label" fill="#706a61">Reasoning Loop</text>
</g>

<defs>
  <marker id="arrow-1" markerWidth="12" markerHeight="12" viewBox="0 0 12 12" refX="9" refY="6" orient="auto" markerUnits="userSpaceOnUse">
    <path d="M 1 1.5 L 11 6 L 1 10.5 z" fill="#0e7490" />
  </marker>
</defs>
<g class="edge" data-role="source">
  <path class="edge-base" d="M 890.1 182.3 C 890.1 222.3, 968.9 276.7, 968.9 316.7" fill="none" stroke="#0e7490" stroke-width="1.7" opacity="0.24" />
  <path class="edge-draw" d="M 890.1 182.3 C 890.1 222.3, 968.9 276.7, 968.9 316.7" fill="none" stroke="#0e7490" stroke-width="2.4" pathLength="1"
        stroke-dasharray="1" stroke-dashoffset="0" marker-end="url(#arrow-1)" />

  <circle class="edge-particle edge-packet" r="5.5" fill="#0e7490" stroke="none" opacity="0.92">
    <animateMotion dur="1.65s" repeatCount="indefinite" path="M 890.1 182.3 C 890.1 222.3, 968.9 276.7, 968.9 316.7" begin="-0.19s" />
    <animate attributeName="opacity" values="0;0.92;0" dur="1.65s" begin="-0.19s" repeatCount="indefinite" />
  </circle>

  <text x="929.5" y="235.5" class="edge-label" fill="#706a61" opacity="1">
    look up
  </text>
</g>

<defs>
  <marker id="arrow-2" markerWidth="12" markerHeight="12" viewBox="0 0 12 12" refX="9" refY="6" orient="auto" markerUnits="userSpaceOnUse">
    <path d="M 1 1.5 L 11 6 L 1 10.5 z" fill="#0e7490" />
  </marker>
</defs>
<g class="edge" data-role="source">
  <path class="edge-base" d="M 969.1 337.4 C 969.1 377.4, 889.9 436.6, 889.9 476.6" fill="none" stroke="#0e7490" stroke-width="1.7" opacity="0.24" />
  <path class="edge-draw" d="M 969.1 337.4 C 969.1 377.4, 889.9 436.6, 889.9 476.6" fill="none" stroke="#0e7490" stroke-width="2.4" pathLength="1"
        stroke-dasharray="1" stroke-dashoffset="0" marker-end="url(#arrow-2)" />

  <circle class="edge-particle edge-packet" r="5.5" fill="#0e7490" stroke="none" opacity="0.92">
    <animateMotion dur="1.65s" repeatCount="indefinite" path="M 969.1 337.4 C 969.1 377.4, 889.9 436.6, 889.9 476.6" begin="-0.38s" />
    <animate attributeName="opacity" values="0;0.92;0" dur="1.65s" begin="-0.38s" repeatCount="indefinite" />
  </circle>

  <text x="929.5" y="393.0" class="edge-label" fill="#706a61" opacity="1">
    evidence
  </text>
</g>

<defs>
  <marker id="arrow-3" markerWidth="12" markerHeight="12" viewBox="0 0 12 12" refX="9" refY="6" orient="auto" markerUnits="userSpaceOnUse">
    <path d="M 1 1.5 L 11 6 L 1 10.5 z" fill="#b91c1c" />
  </marker>
</defs>
<g class="edge" data-role="risk">
  <path class="edge-base" d="M 638.0 476.6 C 638.0 436.6, 558.0 377.4, 558.0 337.4" fill="none" stroke="#b91c1c" stroke-width="1.7" opacity="0.24" />
  <path class="edge-draw" d="M 638.0 476.6 C 638.0 436.6, 558.0 377.4, 558.0 337.4" fill="none" stroke="#b91c1c" stroke-width="2.4" pathLength="1"
        stroke-dasharray="1" stroke-dashoffset="0" marker-end="url(#arrow-3)" />
  <path class="edge-flow edge-flow-stream-flow" d="M 638.0 476.6 C 638.0 436.6, 558.0 377.4, 558.0 337.4" fill="none" stroke="#b91c1c" stroke-width="2.1"
        stroke-linecap="round" stroke-dasharray="8 14" opacity="0.58">
    <animate attributeName="stroke-dashoffset" values="0;-44" dur="1.35s" begin="-0.33s" repeatCount="indefinite" />
  </path>


  <text x="598.0" y="393.0" class="edge-label" fill="#706a61" opacity="1">
    review
  </text>
</g>

<defs>
  <marker id="arrow-4" markerWidth="12" markerHeight="12" viewBox="0 0 12 12" refX="9" refY="6" orient="auto" markerUnits="userSpaceOnUse">
    <path d="M 1 1.5 L 11 6 L 1 10.5 z" fill="#ea580c" />
  </marker>
</defs>
<g class="edge" data-role="actor">
  <path class="edge-base" d="M 558.1 316.7 C 558.1 276.7, 637.9 222.3, 637.9 182.3" fill="none" stroke="#ea580c" stroke-width="1.7" opacity="0.24" />
  <path class="edge-draw" d="M 558.1 316.7 C 558.1 276.7, 637.9 222.3, 637.9 182.3" fill="none" stroke="#ea580c" stroke-width="2.4" pathLength="1"
        stroke-dasharray="1" stroke-dashoffset="0" marker-end="url(#arrow-4)" />

  <circle class="edge-particle edge-packet" r="5.5" fill="#ea580c" stroke="none" opacity="0.92">
    <animateMotion dur="1.65s" repeatCount="indefinite" path="M 558.1 316.7 C 558.1 276.7, 637.9 222.3, 637.9 182.3" begin="-0.76s" />
    <animate attributeName="opacity" values="0;0.92;0" dur="1.65s" begin="-0.76s" repeatCount="indefinite" />
  </circle>

  <text x="598.0" y="235.5" class="edge-label" fill="#706a61" opacity="1">
    revise
  </text>
</g>

<defs>
  <marker id="arrow-5" markerWidth="12" markerHeight="12" viewBox="0 0 12 12" refX="9" refY="6" orient="auto" markerUnits="userSpaceOnUse">
    <path d="M 1 1.5 L 11 6 L 1 10.5 z" fill="#15803d" />
  </marker>
</defs>
<g class="edge" data-role="memory">
  <path class="edge-base" d="M 764.0 381.0 L 764.0 433.0" fill="none" stroke="#15803d" stroke-width="1.7" opacity="0.24" />
  <path class="edge-draw" d="M 764.0 381.0 L 764.0 433.0" fill="none" stroke="#15803d" stroke-width="2.4" pathLength="1"
        stroke-dasharray="1" stroke-dashoffset="0" marker-end="url(#arrow-5)" />

  <circle class="edge-particle edge-packet" r="5.5" fill="#15803d" stroke="none" opacity="0.92">
    <animateMotion dur="1.65s" repeatCount="indefinite" path="M 764.0 381.0 L 764.0 433.0" begin="-0.95s" />
    <animate attributeName="opacity" values="0;0.92;0" dur="1.65s" begin="-0.95s" repeatCount="indefinite" />
  </circle>

  <text x="764.0" y="393.0" class="edge-label" fill="#706a61" opacity="1">
    recall
  </text>
</g>

<g id="node-question" class="node motion-node" data-role="actor" opacity="0">
  <animate attributeName="opacity" values="0;1" dur="0.55s" begin="0.25s" fill="freeze" />



  <rect x="644.0" y="130.0" width="240.0" height="84.0" rx="12.0"
        fill="#fff7ed" stroke="#ea580c" stroke-width="1.8" />
<g class="semantic-icon-wrap semantic-icon-character-wrap semantic-icon-illustrated-wrap" data-icon="agent" data-node-id="question" opacity="1">
  <g id="icon-question-root" class="semantic-icon semantic-icon-illustrated" data-icon-system="illustrated" data-icon-system-version="2.5.0" data-semantic-role="input-reason-result" data-rest-opacity="1" transform="translate(668.0 128.0) scale(0.7333)">
    <g class="illustrated-character-motion-shell">
      <circle id="icon-question-wash" class="illustrated-part illustrated-wash" data-rest-opacity="1" cx="59" cy="61" r="49" fill="#faf5ff" stroke="none" stroke-width="3.4" stroke-linecap="round" stroke-linejoin="round" />
      <path id="icon-question-brain-left" class="illustrated-part illustrated-brain-left" data-rest-opacity="1" d="M57 27C45 18 30 25 31 38c-11 4-12 19-2 25-5 12 7 23 18 18 3 8 10 9 15 3V38c-1-5-2-8-5-11Z" fill="#4daf78" stroke="#3f3028" stroke-width="3.4" stroke-linecap="round" stroke-linejoin="round" />
      <path id="icon-question-brain-right" class="illustrated-part illustrated-brain-right" data-rest-opacity="1" d="M63 27c12-9 27-2 26 11 11 4 12 19 2 25 5 12-7 23-18 18-3 8-10 9-15 3V38c1-5 2-8 5-11Z" fill="#d4b8f4" stroke="#3f3028" stroke-width="3.4" stroke-linecap="round" stroke-linejoin="round" />
      <path id="icon-question-brain-detail" class="illustrated-part illustrated-brain-detail" data-rest-opacity="0.68" d="M43 35c-5 4-3 9 1 11m-8 13c7-1 7 6 12 8m29-32c5 4 3 9-1 11m8 13c-7-1-7 6-12 8" opacity="0.68" fill="none" stroke="#3f3028" stroke-width="2.6" stroke-linecap="round" stroke-linejoin="round" />
      <rect id="icon-question-processor" class="illustrated-part illustrated-processor" data-rest-opacity="1" x="45" y="42" width="30" height="30" rx="6" fill="#fffaf5" stroke="#3f3028" stroke-width="3.4" stroke-linecap="round" stroke-linejoin="round" />
      <path id="icon-question-processor-core" class="illustrated-part illustrated-processor-core" data-rest-opacity="1" d="M50 63l4.5-13L59 63m-7.3-5h5.6M62.5 50h7m-3.5 0v13m-3.5 0h7" fill="none" stroke="#9333ea" stroke-width="2.4" stroke-linecap="round" stroke-linejoin="round" />
      <path id="icon-question-input-nodes" class="illustrated-part illustrated-input-nodes" data-rest-opacity="1" d="M8 45h12v12H8Zm0 26h12V59H8Z" fill="#dc6b5f" stroke="#3f3028" stroke-width="3.4" stroke-linecap="round" stroke-linejoin="round" />
      <path id="icon-question-input-path" class="illustrated-part illustrated-input-path" data-rest-opacity="1" d="M20 51h9m-9 14h7c4 0 5-3 5-7" fill="none" stroke="#9333ea" stroke-width="3" stroke-linecap="round" stroke-linejoin="round" />
      <path id="icon-question-output-path" class="illustrated-part illustrated-output-path" data-rest-opacity="1" d="M90 54h10c5 0 7-3 7-7V35" fill="none" stroke="#9333ea" stroke-width="3" stroke-linecap="round" stroke-linejoin="round" />
      <path id="icon-question-result" class="illustrated-part illustrated-result" data-rest-opacity="1" d="M107 16l3 8 8 3-8 3-3 8-3-8-8-3 8-3Z" fill="#d9a62e" stroke="#3f3028" stroke-width="2.7" stroke-linecap="round" stroke-linejoin="round" />
    </g>
  </g>
</g>

  <text x="833.0" y="158.0" text-anchor="middle" fill="#2f2a24">
<tspan x="833.0" dy="18" class="node-title">Question</tspan>
<tspan x="833.0" dy="17" class="node-caption">frame</tspan>
</text>
</g>

<g id="node-collect" class="node motion-node" data-role="source" opacity="0">
  <animate attributeName="opacity" values="0;1" dur="0.55s" begin="0.37s" fill="freeze" />



  <rect x="975.0" y="285.0" width="240.0" height="84.0" rx="12.0"
        fill="#ecfeff" stroke="#0e7490" stroke-width="1.8" />
<g class="semantic-icon-wrap semantic-icon-character-wrap semantic-icon-illustrated-wrap" data-icon="search" data-node-id="collect" opacity="1">
  <g id="icon-collect-root" class="semantic-icon semantic-icon-illustrated" data-icon-system="illustrated" data-icon-system-version="2.5.0" data-semantic-role="query-scan-discover" data-rest-opacity="1" transform="translate(999.0 283.0) scale(0.7333)">
    <g class="illustrated-character-motion-shell">
      <circle id="icon-collect-wash" class="illustrated-part illustrated-wash" data-rest-opacity="1" cx="58" cy="61" r="49" fill="#ecfeff" stroke="none" stroke-width="3.4" stroke-linecap="round" stroke-linejoin="round" />
      <circle id="icon-collect-lens-glass" class="illustrated-part illustrated-lens-glass" data-rest-opacity="1" cx="49" cy="48" r="29" fill="#fffaf5" stroke="none" stroke-width="3.4" stroke-linecap="round" stroke-linejoin="round" />
      <circle id="icon-collect-lens" class="illustrated-part illustrated-lens" data-rest-opacity="1" cx="49" cy="48" r="30" fill="none" stroke="#3f3028" stroke-width="5" stroke-linecap="round" stroke-linejoin="round" />
      <path id="icon-collect-handle" class="illustrated-part illustrated-handle" data-rest-opacity="1" d="M70 69l29 29" fill="none" stroke="#3f3028" stroke-width="10" stroke-linecap="round" stroke-linejoin="round" />
      <path id="icon-collect-scan-cross" class="illustrated-part illustrated-scan-cross" data-rest-opacity="1" d="M49 34v28M35 48h28" fill="none" stroke="#9333ea" stroke-width="3" stroke-linecap="round" stroke-linejoin="round" />
      <circle id="icon-collect-target-ring" class="illustrated-part illustrated-target-ring" data-rest-opacity="1" cx="93" cy="24" r="11" fill="#f0fdf4" stroke="#2b9a96" stroke-width="3" stroke-linecap="round" stroke-linejoin="round" />
      <circle id="icon-collect-result-dot" class="illustrated-part illustrated-result-dot" data-rest-opacity="1" cx="93" cy="24" r="4" fill="#4daf78" stroke="#3f3028" stroke-width="2.2" stroke-linecap="round" stroke-linejoin="round" />
      <path id="icon-collect-discovery" class="illustrated-part illustrated-discovery" data-rest-opacity="1" d="M20 79l3 8 8 3-8 3-3 8-3-8-8-3 8-3Z" fill="#d9a62e" stroke="#3f3028" stroke-width="2.6" stroke-linecap="round" stroke-linejoin="round" />
    </g>
  </g>
</g>

  <text x="1164.0" y="313.0" text-anchor="middle" fill="#2f2a24">
<tspan x="1164.0" dy="18" class="node-title">Collect</tspan>
<tspan x="1164.0" dy="17" class="node-caption">sources</tspan>
</text>
</g>

<g id="node-synth" class="node motion-node" data-role="process" opacity="0">
  <animate attributeName="opacity" values="0;1" dur="0.55s" begin="0.49s" fill="freeze" />



  <rect x="644.0" y="445.0" width="240.0" height="84.0" rx="12.0"
        fill="#fffbeb" stroke="#92400e" stroke-width="1.8" />
<g class="semantic-icon-wrap semantic-icon-character-wrap semantic-icon-illustrated-wrap" data-icon="file" data-node-id="synth" opacity="1">
  <g id="icon-synth-root" class="semantic-icon semantic-icon-illustrated" data-icon-system="illustrated" data-icon-system-version="2.5.0" data-semantic-role="document-content-attach-reference" data-rest-opacity="1" transform="translate(668.0 443.0) scale(0.7333)">
    <g class="illustrated-character-motion-shell">
      <circle id="icon-synth-wash" class="illustrated-part illustrated-wash" data-rest-opacity="1" cx="60" cy="61" r="49" fill="#faf5ff" stroke="none" stroke-width="3.4" stroke-linecap="round" stroke-linejoin="round" />
      <rect id="icon-synth-page" class="illustrated-part illustrated-page" data-rest-opacity="1" x="29" y="17" width="62" height="86" rx="8" fill="#fffaf5" stroke="#3f3028" stroke-width="3.4" stroke-linecap="round" stroke-linejoin="round" />
      <path id="icon-synth-paperclip" class="illustrated-part illustrated-paperclip" data-rest-opacity="1" d="M45 35v38c0 13 18 13 18 0V44c0-8-11-8-11 0v27c0 5 6 5 6 0V49" fill="none" stroke="#9333ea" stroke-width="4" stroke-linecap="round" stroke-linejoin="round" />
      <path id="icon-synth-content-lines" class="illustrated-part illustrated-content-lines" data-rest-opacity="1" d="M68 49h12M68 64h12" fill="none" stroke="#0e7490" stroke-width="3" stroke-linecap="round" stroke-linejoin="round" />
    </g>
  </g>
</g>

  <text x="833.0" y="473.0" text-anchor="middle" fill="#2f2a24">
<tspan x="833.0" dy="18" class="node-title">Synthesis</tspan>
<tspan x="833.0" dy="17" class="node-caption">draft</tspan>
</text>
</g>

<g id="node-critique" class="node motion-node" data-role="risk" opacity="0">
  <animate attributeName="opacity" values="0;1" dur="0.55s" begin="0.61s" fill="freeze" />



  <rect x="312.0" y="285.0" width="240.0" height="84.0" rx="12.0"
        fill="#fef2f2" stroke="#b91c1c" stroke-width="1.8" />
<g class="semantic-icon-wrap semantic-icon-character-wrap semantic-icon-illustrated-wrap" data-icon="shield" data-node-id="critique" opacity="1">
  <g id="icon-critique-root" class="semantic-icon semantic-icon-illustrated" data-icon-system="illustrated" data-icon-system-version="2.5.0" data-semantic-role="security-lock-protect" data-rest-opacity="1" transform="translate(336.0 283.0) scale(0.7333)">
    <g class="illustrated-character-motion-shell">
      <circle id="icon-critique-wash" class="illustrated-part illustrated-wash" data-rest-opacity="1" cx="61" cy="61" r="49" fill="#faf5ff" stroke="none" stroke-width="3.4" stroke-linecap="round" stroke-linejoin="round" />
      <path id="icon-critique-shield-shell" class="illustrated-part illustrated-shield-shell" data-rest-opacity="1" d="M60 15l35 14v28c0 22-14 37-35 47-21-10-35-25-35-47V29Z" fill="#d4b8f4" stroke="#3f3028" stroke-width="3.4" stroke-linecap="round" stroke-linejoin="round" />
      <path id="icon-critique-inner-field" class="illustrated-part illustrated-inner-field" data-rest-opacity="1" d="M60 29l22 9v18c0 14-9 24-22 31-13-7-22-17-22-31V38Z" fill="#fffaf5" stroke="#3f3028" stroke-width="3" stroke-linecap="round" stroke-linejoin="round" />
      <path id="icon-critique-lock-shackle" class="illustrated-part illustrated-lock-shackle" data-rest-opacity="1" d="M49 59v-8c0-15 22-15 22 0v8" fill="none" stroke="#0e7490" stroke-width="4" stroke-linecap="round" stroke-linejoin="round" />
      <rect id="icon-critique-security-lock" class="illustrated-part illustrated-security-lock" data-rest-opacity="1" x="44" y="57" width="32" height="28" rx="7" fill="#4daf78" stroke="#3f3028" stroke-width="3" stroke-linecap="round" stroke-linejoin="round" />
      <path id="icon-critique-keyhole" class="illustrated-part illustrated-keyhole" data-rest-opacity="1" d="M60 66a4 4 0 1 0 .1 0M60 70v7" fill="none" stroke="#3f3028" stroke-width="3" stroke-linecap="round" stroke-linejoin="round" />
    </g>
  </g>
</g>

  <text x="501.0" y="313.0" text-anchor="middle" fill="#2f2a24">
<tspan x="501.0" dy="18" class="node-title">Critique</tspan>
<tspan x="501.0" dy="17" class="node-caption">check</tspan>
</text>
</g>

<g id="node-memory" class="node motion-node" data-role="memory" opacity="0">
  <animate attributeName="opacity" values="0;1" dur="0.55s" begin="0.73s" fill="freeze" />



  <rect x="644.0" y="285.0" width="240.0" height="84.0" rx="12.0"
        fill="#f0fdf4" stroke="#15803d" stroke-width="1.8" />
<g class="semantic-icon-wrap semantic-icon-character-wrap semantic-icon-illustrated-wrap" data-icon="memory" data-node-id="memory" opacity="1">
  <g id="icon-memory-root" class="semantic-icon semantic-icon-illustrated" data-icon-system="illustrated" data-icon-system-version="2.5.0" data-semantic-role="context-capture-index-recall" data-rest-opacity="1" transform="translate(668.0 283.0) scale(0.7333)">
    <g class="illustrated-character-motion-shell">
      <circle id="icon-memory-wash" class="illustrated-part illustrated-wash" data-rest-opacity="1" cx="59" cy="61" r="49" fill="#f0fdf4" stroke="none" stroke-width="3.4" stroke-linecap="round" stroke-linejoin="round" />
      <path id="icon-memory-context-stack" class="illustrated-part illustrated-context-stack" data-rest-opacity="1" d="M19 31h66v65H19Zm7-8h66v65" fill="#d4b8f4" stroke="#3f3028" stroke-width="2.8" stroke-linecap="round" stroke-linejoin="round" />
      <rect id="icon-memory-context-card" class="illustrated-part illustrated-context-card" data-rest-opacity="1" x="33" y="16" width="66" height="65" rx="12" fill="#fffaf5" stroke="#3f3028" stroke-width="3.4" stroke-linecap="round" stroke-linejoin="round" />
      <path id="icon-memory-context-nodes" class="illustrated-part illustrated-context-nodes" data-rest-opacity="1" d="M49 39h0m18 12h0m17-15h0m-25 28h0" fill="none" stroke="#0e7490" stroke-width="9" stroke-linecap="round" stroke-linejoin="round" />
      <path id="icon-memory-context-links" class="illustrated-part illustrated-context-links" data-rest-opacity="1" d="M49 39 67 51m0 0 17-15M67 51l-8 13" fill="none" stroke="#9333ea" stroke-width="3" stroke-linecap="round" stroke-linejoin="round" />
      <path id="icon-memory-recall-orbit" class="illustrated-part illustrated-recall-orbit" data-rest-opacity="1" d="M46 91c9-10 26-11 37-2 6 5 8 11 7 18" fill="none" stroke="#dc6b5f" stroke-width="4" stroke-linecap="round" stroke-linejoin="round" />
      <circle id="icon-memory-recall-focus" class="illustrated-part illustrated-recall-focus" data-rest-opacity="1" cx="47" cy="91" r="7" fill="#d9a62e" stroke="#3f3028" stroke-width="2.6" stroke-linecap="round" stroke-linejoin="round" />
    </g>
  </g>
</g>

  <text x="833.0" y="313.0" text-anchor="middle" fill="#2f2a24">
<tspan x="833.0" dy="18" class="node-title">Memory</tspan>
<tspan x="833.0" dy="17" class="node-caption">reuse</tspan>
</text>
</g>
</svg>
