<svg xmlns="http://www.w3.org/2000/svg" width="1632" height="720" viewBox="0 0 1632 720" role="img" aria-labelledby="diagram-title diagram-desc" data-motion-profile="off" data-motion-sequence="staged" data-motion-edge="packet-flow" data-motion-node="icon-performance" data-motion-group="border-scan" data-motion-title="highlight-sweep" data-motion-reduced="subtle" data-icon-system="illustrated" data-icon-system-version="2.5.0">
<title id="diagram-title">Lead-to-Agent Automation Funnel</title>
<desc id="diagram-desc">capture, qualify, enrich, score, and hand off the right lead</desc>
<style>
  .title { font: 700 42px ui-sans-serif, system-ui, -apple-system, BlinkMacSystemFont, "Segoe UI", sans-serif; letter-spacing: 0; }
  .subtitle { font: 400 16px ui-sans-serif, system-ui, -apple-system, BlinkMacSystemFont, "Segoe UI", sans-serif; }
  .node-title { font: 700 18px ui-sans-serif, system-ui, -apple-system, BlinkMacSystemFont, "Segoe UI", sans-serif; }
  .node-caption { font: 400 13px ui-sans-serif, system-ui, -apple-system, BlinkMacSystemFont, "Segoe UI", sans-serif; opacity: 0.84; }
  .group-label { font: 700 14px ui-sans-serif, system-ui, -apple-system, BlinkMacSystemFont, "Segoe UI", sans-serif; text-transform: uppercase; letter-spacing: 0.08em; }
  .edge-label { font: 600 13px ui-sans-serif, system-ui, -apple-system, BlinkMacSystemFont, "Segoe UI", sans-serif; }
  .step-label { font: 700 12px ui-sans-serif, system-ui, -apple-system, BlinkMacSystemFont, "Segoe UI", sans-serif; }
  .edge-flow { stroke-linecap: round; }
  .edge-draw, .edge-base { stroke-linecap: butt; stroke-linejoin: round; }
  .edge-particle { filter: url(#particle-glow); }
  .edge-arrow-particle { filter: url(#particle-glow); }
  .semantic-icon { vector-effect: non-scaling-stroke; }
  .semantic-icon-breathe { transform-box: fill-box; transform-origin: center; animation: semanticIconBreathe 2.8s ease-in-out infinite; }
  .icon-breathe-halo { pointer-events: none; filter: url(#particle-glow); }
  .node-glow, .node-burst { pointer-events: none; }
  #title-accent { transform-origin: 50px 70px; animation: titlePulse 4.8s ease-in-out infinite; }
  #title-highlight { transform-origin: 252px 74px; animation: titleSlide 5.6s ease-in-out infinite; }
  @keyframes titlePulse { 0%, 100% { opacity: 0.76; } 50% { opacity: 1; } }
  @keyframes titleSlide { 0%, 100% { transform: translateX(0); opacity: 0.9; } 50% { transform: translateX(8px); opacity: 1; } }
  @keyframes semanticIconBreathe { 0%, 100% { transform: scale(0.96); opacity: 0.72; } 50% { transform: scale(1.08); opacity: 1; } }
  @media (prefers-reduced-motion: reduce) {
    #title-accent, #title-highlight, .semantic-icon-breathe { animation: none; }
  }
</style>
<rect width="100%" height="100%" fill="#eef2ff" />
<defs>
  <filter id="soft-glow" x="-40%" y="-40%" width="180%" height="180%">
    <feGaussianBlur stdDeviation="5" result="blur" />
    <feMerge>
      <feMergeNode in="blur" />
      <feMergeNode in="SourceGraphic" />
    </feMerge>
  </filter>
  <filter id="particle-glow" x="-80%" y="-80%" width="260%" height="260%">
    <feGaussianBlur stdDeviation="2.6" result="blur" />
    <feMerge>
      <feMergeNode in="blur" />
      <feMergeNode in="SourceGraphic" />
    </feMerge>
  </filter>
  <pattern id="grid" width="32" height="32" patternUnits="userSpaceOnUse">
    <path d="M 32 0 L 0 0 0 32" fill="none" stroke="#dbe4ff" stroke-width="1" />
  </pattern>
</defs>
<rect width="100%" height="100%" fill="url(#grid)" opacity="0.52" />
<rect x="28" y="26" width="1576" height="668" rx="26" fill="none" stroke="#94a3b8" stroke-width="1.4" opacity="1.00" />
<rect id="title-accent" x="44" y="44" width="12" height="52" rx="6" fill="#06b6d4" />
<rect id="title-highlight" x="72" y="46" width="360" height="56" rx="16" fill="#ffffff" />

<rect class="title-sweep" x="72" y="46" width="0" height="56" rx="16" fill="#06b6d4" opacity="0.16">
  </rect>
<text id="main-title" x="90" y="84" class="title" fill="#172033" opacity="1">
  </text>
<text x="74" y="126" class="subtitle" fill="#475569" opacity="1">
  </text>

<g id="group-funnel" class="group" opacity="1">
  <rect x="556.0" y="80.0" width="456.0" height="555.0" rx="22" fill="#f8fbff" fill-opacity="0.34" stroke="#2563eb" stroke-width="1.6" stroke-dasharray="9 8">
    </rect>

  <rect class="group-border-scan" x="556.0" y="80.0" width="456.0" height="555.0" rx="22" fill="none" stroke="#2563eb" stroke-width="3.4" stroke-linecap="round" stroke-dasharray="121.3 707.7" opacity="0.72" filter="url(#soft-glow)">
    </rect>

  <text x="574.0" y="110.0" class="group-label" fill="#475569">Automation Funnel</text>
</g>

<defs>
  <marker id="arrow-1" markerWidth="12" markerHeight="12" viewBox="0 0 12 12" refX="9" refY="6" orient="auto" markerUnits="userSpaceOnUse">
    <path d="M 1 1.5 L 11 6 L 1 10.5 z" fill="#2563eb" />
  </marker>
</defs>
<g class="edge" data-role="process">
  <path class="edge-base" d="M 760.5 201.7 L 760.5 209.3 L 764.5 209.3" fill="none" stroke="#2563eb" stroke-width="1.7" opacity="0.24" />
  <path class="edge-draw" d="M 760.5 201.7 L 760.5 209.3 L 764.5 209.3" fill="none" stroke="#2563eb" stroke-width="2.4" pathLength="1" stroke-dasharray="1" stroke-dashoffset="0" marker-end="url(#arrow-1)" />

  <circle class="edge-particle edge-packet" r="5.5" fill="#2563eb" stroke="none" opacity="0.92">
    </circle>

  <text x="762.5" y="191.5" class="edge-label" fill="#475569" opacity="1">
    filter
  </text>
</g>

<defs>
  <marker id="arrow-2" markerWidth="12" markerHeight="12" viewBox="0 0 12 12" refX="9" refY="6" orient="auto" markerUnits="userSpaceOnUse">
    <path d="M 1 1.5 L 11 6 L 1 10.5 z" fill="#2563eb" />
  </marker>
</defs>
<g class="edge" data-role="process">
  <path class="edge-base" d="M 777.8 305.1 L 777.8 315.9 L 787.2 315.9" fill="none" stroke="#2563eb" stroke-width="1.7" opacity="0.24" />
  <path class="edge-draw" d="M 777.8 305.1 L 777.8 315.9 L 787.2 315.9" fill="none" stroke="#2563eb" stroke-width="2.4" pathLength="1" stroke-dasharray="1" stroke-dashoffset="0" marker-end="url(#arrow-2)" />

  <circle class="edge-particle edge-packet" r="5.5" fill="#2563eb" stroke="none" opacity="0.92">
    </circle>

  <text x="782.5" y="296.5" class="edge-label" fill="#475569" opacity="1">
    filter
  </text>
</g>

<defs>
  <marker id="arrow-3" markerWidth="12" markerHeight="12" viewBox="0 0 12 12" refX="9" refY="6" orient="auto" markerUnits="userSpaceOnUse">
    <path d="M 1 1.5 L 11 6 L 1 10.5 z" fill="#2563eb" />
  </marker>
</defs>
<g class="edge" data-role="process">
  <path class="edge-base" d="M 802.8 410.1 L 802.8 420.9 L 812.2 420.9" fill="none" stroke="#2563eb" stroke-width="1.7" opacity="0.24" />
  <path class="edge-draw" d="M 802.8 410.1 L 802.8 420.9 L 812.2 420.9" fill="none" stroke="#2563eb" stroke-width="2.4" pathLength="1" stroke-dasharray="1" stroke-dashoffset="0" marker-end="url(#arrow-3)" />

  <circle class="edge-particle edge-packet" r="5.5" fill="#2563eb" stroke="none" opacity="0.92">
    </circle>

  <text x="807.5" y="401.5" class="edge-label" fill="#475569" opacity="1">
    filter
  </text>
</g>

<defs>
  <marker id="arrow-4" markerWidth="12" markerHeight="12" viewBox="0 0 12 12" refX="9" refY="6" orient="auto" markerUnits="userSpaceOnUse">
    <path d="M 1 1.5 L 11 6 L 1 10.5 z" fill="#2563eb" />
  </marker>
</defs>
<g class="edge" data-role="process">
  <path class="edge-base" d="M 824.6 517.1 L 824.6 523.9 L 827.4 523.9" fill="none" stroke="#2563eb" stroke-width="1.7" opacity="0.24" />
  <path class="edge-draw" d="M 824.6 517.1 L 824.6 523.9 L 827.4 523.9" fill="none" stroke="#2563eb" stroke-width="2.4" pathLength="1" stroke-dasharray="1" stroke-dashoffset="0" marker-end="url(#arrow-4)" />

  <circle class="edge-particle edge-packet" r="5.5" fill="#2563eb" stroke="none" opacity="0.92">
    </circle>

  <text x="826.0" y="506.5" class="edge-label" fill="#475569" opacity="1">
    filter
  </text>
</g>

<g id="node-capture" class="node motion-node" data-role="source" opacity="1">
  <rect x="625.0" y="115.0" width="260.0" height="76.0" rx="18.0" fill="#f0fdff" stroke="#0891b2" stroke-width="1.5" />
<g class="semantic-icon-wrap semantic-icon-character-wrap semantic-icon-illustrated-wrap" data-icon="cloud" data-node-id="capture" opacity="1">
  <g id="icon-capture-root" class="semantic-icon semantic-icon-illustrated" data-icon-system="illustrated" data-icon-system-version="2.5.0" data-semantic-role="data-upload-download-sync" data-rest-opacity="1" transform="translate(649.0 109.0) scale(0.7333)">
    <g class="illustrated-character-motion-shell">
      <circle id="icon-capture-wash" class="illustrated-part illustrated-wash" data-rest-opacity="1" cx="58" cy="63" r="49" fill="#f0fdff" stroke="none" stroke-width="3.4" stroke-linecap="round" stroke-linejoin="round" />
      <path id="icon-capture-cloud-shell" class="illustrated-part illustrated-cloud-shell" data-rest-opacity="1" d="M28 91c-16 0-21-20-7-29-1-17 18-27 32-17 9-14 31-10 34 6 17-1 23 21 7 32Z" fill="#7dd3fc" stroke="#24324a" stroke-width="3.4" stroke-linecap="round" stroke-linejoin="round" />
      <path id="icon-capture-upload-arrow" class="illustrated-part illustrated-upload-arrow" data-rest-opacity="1" d="M44 80V49M34 59l10-10 10 10" fill="none" stroke="#8b5cf6" stroke-width="4" stroke-linecap="round" stroke-linejoin="round" />
      <path id="icon-capture-download-arrow" class="illustrated-part illustrated-download-arrow" data-rest-opacity="1" d="M76 47v31M66 68l10 10 10-10" fill="none" stroke="#0e7490" stroke-width="4" stroke-linecap="round" stroke-linejoin="round" />
    </g>
  </g>
</g>

  <text x="824.0" y="141.0" text-anchor="middle" fill="#172033">
<tspan x="824.0" dy="18" class="node-title">Capture</tspan>
<tspan x="824.0" dy="17" class="node-caption">forms +</tspan>
<tspan x="824.0" dy="17" class="node-caption">chat</tspan>
</text>
</g>

<g id="node-qualify" class="node motion-node" data-role="process" opacity="1">
  <rect x="650.0" y="220.0" width="240.0" height="76.0" rx="18.0" fill="#f8fbff" stroke="#2563eb" stroke-width="1.5" />
<g class="semantic-icon-wrap semantic-icon-character-wrap semantic-icon-illustrated-wrap" data-icon="search" data-node-id="qualify" opacity="1">
  <g id="icon-qualify-root" class="semantic-icon semantic-icon-illustrated" data-icon-system="illustrated" data-icon-system-version="2.5.0" data-semantic-role="query-scan-discover" data-rest-opacity="1" transform="translate(674.0 214.0) scale(0.7333)">
    <g class="illustrated-character-motion-shell">
      <circle id="icon-qualify-wash" class="illustrated-part illustrated-wash" data-rest-opacity="1" cx="58" cy="61" r="49" fill="#f0fdff" stroke="none" stroke-width="3.4" stroke-linecap="round" stroke-linejoin="round" />
      <circle id="icon-qualify-lens-glass" class="illustrated-part illustrated-lens-glass" data-rest-opacity="1" cx="49" cy="48" r="29" fill="#ffffff" stroke="none" stroke-width="3.4" stroke-linecap="round" stroke-linejoin="round" />
      <circle id="icon-qualify-lens" class="illustrated-part illustrated-lens" data-rest-opacity="1" cx="49" cy="48" r="30" fill="none" stroke="#24324a" stroke-width="5" stroke-linecap="round" stroke-linejoin="round" />
      <path id="icon-qualify-handle" class="illustrated-part illustrated-handle" data-rest-opacity="1" d="M70 69l29 29" fill="none" stroke="#24324a" stroke-width="10" stroke-linecap="round" stroke-linejoin="round" />
      <path id="icon-qualify-scan-cross" class="illustrated-part illustrated-scan-cross" data-rest-opacity="1" d="M49 34v28M35 48h28" fill="none" stroke="#8b5cf6" stroke-width="3" stroke-linecap="round" stroke-linejoin="round" />
      <circle id="icon-qualify-target-ring" class="illustrated-part illustrated-target-ring" data-rest-opacity="1" cx="93" cy="24" r="11" fill="#f1fff8" stroke="#06b6d4" stroke-width="3" stroke-linecap="round" stroke-linejoin="round" />
      <circle id="icon-qualify-result-dot" class="illustrated-part illustrated-result-dot" data-rest-opacity="1" cx="93" cy="24" r="4" fill="#34d399" stroke="#24324a" stroke-width="2.2" stroke-linecap="round" stroke-linejoin="round" />
      <path id="icon-qualify-discovery" class="illustrated-part illustrated-discovery" data-rest-opacity="1" d="M20 79l3 8 8 3-8 3-3 8-3-8-8-3 8-3Z" fill="#fbbf24" stroke="#24324a" stroke-width="2.6" stroke-linecap="round" stroke-linejoin="round" />
    </g>
  </g>
</g>

  <text x="839.0" y="246.0" text-anchor="middle" fill="#172033">
<tspan x="839.0" dy="18" class="node-title">Qualify</tspan>
<tspan x="839.0" dy="17" class="node-caption">rules</tspan>
</text>
</g>

<g id="node-enrich" class="node motion-node" data-role="memory" opacity="1">
  <rect x="675.0" y="325.0" width="240.0" height="76.0" rx="18.0" fill="#f1fff8" stroke="#10b981" stroke-width="1.5" />
<g class="semantic-icon-wrap semantic-icon-character-wrap semantic-icon-illustrated-wrap" data-icon="database" data-node-id="enrich" opacity="1">
  <g id="icon-enrich-root" class="semantic-icon semantic-icon-illustrated" data-icon-system="illustrated" data-icon-system-version="2.5.0" data-semantic-role="data-ingest-store-persist" data-rest-opacity="1" transform="translate(699.0 319.0) scale(0.7333)">
    <g class="illustrated-character-motion-shell">
      <circle id="icon-enrich-wash" class="illustrated-part illustrated-wash" data-rest-opacity="1" cx="59" cy="61" r="49" fill="#f0fdff" stroke="none" stroke-width="3.4" stroke-linecap="round" stroke-linejoin="round" />
      <path id="icon-enrich-cylinder-body" class="illustrated-part illustrated-cylinder-body" data-rest-opacity="1" d="M25 37v50c0 9 16 16 35 16s35-7 35-16V37Z" fill="#7dd3fc" stroke="#24324a" stroke-width="3.4" stroke-linecap="round" stroke-linejoin="round" />
      <ellipse id="icon-enrich-cylinder-top" class="illustrated-part illustrated-cylinder-top" data-rest-opacity="1" cx="60" cy="37" rx="35" ry="14" fill="#c4b5fd" stroke="#24324a" stroke-width="3.4" stroke-linecap="round" stroke-linejoin="round" />
      <path id="icon-enrich-layer-top" class="illustrated-part illustrated-layer-top" data-rest-opacity="1" d="M25 58c0 9 16 16 35 16s35-7 35-16" fill="none" stroke="#24324a" stroke-width="3" stroke-linecap="round" stroke-linejoin="round" />
      <path id="icon-enrich-layer-bottom" class="illustrated-part illustrated-layer-bottom" data-rest-opacity="1" d="M25 78c0 9 16 16 35 16s35-7 35-16" fill="none" stroke="#24324a" stroke-width="3" stroke-linecap="round" stroke-linejoin="round" />
      <circle id="icon-enrich-input-bead" class="illustrated-part illustrated-input-bead" data-rest-opacity="1" cx="14" cy="23" r="6" fill="#fb7185" stroke="#24324a" stroke-width="2.6" stroke-linecap="round" stroke-linejoin="round" />
      <path id="icon-enrich-write-path" class="illustrated-part illustrated-write-path" data-rest-opacity="1" d="M20 25c11-4 17 0 24 8m-7-1 7 1-3-7" fill="none" stroke="#8b5cf6" stroke-width="3" stroke-linecap="round" stroke-linejoin="round" />
      <ellipse id="icon-enrich-commit-ripple" class="illustrated-part illustrated-commit-ripple" data-rest-opacity="1" cx="60" cy="85" rx="13" ry="5" fill="none" stroke="#06b6d4" stroke-width="2.5" stroke-linecap="round" stroke-linejoin="round" />
      <circle id="icon-enrich-stored-bead" class="illustrated-part illustrated-stored-bead" data-rest-opacity="1" cx="60" cy="84" r="4.5" fill="#34d399" stroke="#24324a" stroke-width="2.2" stroke-linecap="round" stroke-linejoin="round" />
    </g>
  </g>
</g>

  <text x="864.0" y="351.0" text-anchor="middle" fill="#172033">
<tspan x="864.0" dy="18" class="node-title">Enrich</tspan>
<tspan x="864.0" dy="17" class="node-caption">context</tspan>
</text>
</g>

<g id="node-score" class="node motion-node" data-role="agent" opacity="1">
  <rect x="700.0" y="430.0" width="240.0" height="76.0" rx="18.0" fill="#fbfaff" stroke="#8b5cf6" stroke-width="1.5" />
<g class="semantic-icon-wrap semantic-icon-character-wrap semantic-icon-illustrated-wrap" data-icon="agent" data-node-id="score" opacity="1">
  <g id="icon-score-root" class="semantic-icon semantic-icon-illustrated" data-icon-system="illustrated" data-icon-system-version="2.5.0" data-semantic-role="input-reason-result" data-rest-opacity="1" transform="translate(724.0 424.0) scale(0.7333)">
    <g class="illustrated-character-motion-shell">
      <circle id="icon-score-wash" class="illustrated-part illustrated-wash" data-rest-opacity="1" cx="59" cy="61" r="49" fill="#fbfaff" stroke="none" stroke-width="3.4" stroke-linecap="round" stroke-linejoin="round" />
      <path id="icon-score-brain-left" class="illustrated-part illustrated-brain-left" data-rest-opacity="1" d="M57 27C45 18 30 25 31 38c-11 4-12 19-2 25-5 12 7 23 18 18 3 8 10 9 15 3V38c-1-5-2-8-5-11Z" fill="#34d399" stroke="#24324a" stroke-width="3.4" stroke-linecap="round" stroke-linejoin="round" />
      <path id="icon-score-brain-right" class="illustrated-part illustrated-brain-right" data-rest-opacity="1" d="M63 27c12-9 27-2 26 11 11 4 12 19 2 25 5 12-7 23-18 18-3 8-10 9-15 3V38c1-5 2-8 5-11Z" fill="#c4b5fd" stroke="#24324a" stroke-width="3.4" stroke-linecap="round" stroke-linejoin="round" />
      <path id="icon-score-brain-detail" class="illustrated-part illustrated-brain-detail" data-rest-opacity="0.68" d="M43 35c-5 4-3 9 1 11m-8 13c7-1 7 6 12 8m29-32c5 4 3 9-1 11m8 13c-7-1-7 6-12 8" opacity="0.68" fill="none" stroke="#24324a" stroke-width="2.6" stroke-linecap="round" stroke-linejoin="round" />
      <rect id="icon-score-processor" class="illustrated-part illustrated-processor" data-rest-opacity="1" x="45" y="42" width="30" height="30" rx="6" fill="#ffffff" stroke="#24324a" stroke-width="3.4" stroke-linecap="round" stroke-linejoin="round" />
      <path id="icon-score-processor-core" class="illustrated-part illustrated-processor-core" data-rest-opacity="1" d="M50 63l4.5-13L59 63m-7.3-5h5.6M62.5 50h7m-3.5 0v13m-3.5 0h7" fill="none" stroke="#8b5cf6" stroke-width="2.4" stroke-linecap="round" stroke-linejoin="round" />
      <path id="icon-score-input-nodes" class="illustrated-part illustrated-input-nodes" data-rest-opacity="1" d="M8 45h12v12H8Zm0 26h12V59H8Z" fill="#fb7185" stroke="#24324a" stroke-width="3.4" stroke-linecap="round" stroke-linejoin="round" />
      <path id="icon-score-input-path" class="illustrated-part illustrated-input-path" data-rest-opacity="1" d="M20 51h9m-9 14h7c4 0 5-3 5-7" fill="none" stroke="#8b5cf6" stroke-width="3" stroke-linecap="round" stroke-linejoin="round" />
      <path id="icon-score-output-path" class="illustrated-part illustrated-output-path" data-rest-opacity="1" d="M90 54h10c5 0 7-3 7-7V35" fill="none" stroke="#8b5cf6" stroke-width="3" stroke-linecap="round" stroke-linejoin="round" />
      <path id="icon-score-result" class="illustrated-part illustrated-result" data-rest-opacity="1" d="M107 16l3 8 8 3-8 3-3 8-3-8-8-3 8-3Z" fill="#fbbf24" stroke="#24324a" stroke-width="2.7" stroke-linecap="round" stroke-linejoin="round" />
    </g>
  </g>
</g>

  <text x="889.0" y="456.0" text-anchor="middle" fill="#172033">
<tspan x="889.0" dy="18" class="node-title">Score</tspan>
<tspan x="889.0" dy="17" class="node-caption">agent fit</tspan>
</text>
</g>

<g id="node-handoff" class="node motion-node" data-role="output" opacity="1">
  <rect x="712.0" y="535.0" width="240.0" height="72.0" rx="18.0" fill="#f4fff8" stroke="#22c55e" stroke-width="1.5" />
<g class="semantic-icon-wrap semantic-icon-character-wrap semantic-icon-illustrated-wrap" data-icon="output" data-node-id="handoff" opacity="1">
  <g id="icon-handoff-root" class="semantic-icon semantic-icon-illustrated" data-icon-system="illustrated" data-icon-system-version="2.5.0" data-semantic-role="artifact-deliver-confirm" data-rest-opacity="1" transform="translate(736.0 527.0) scale(0.7333)">
    <g class="illustrated-character-motion-shell">
      <circle id="icon-handoff-wash" class="illustrated-part illustrated-wash" data-rest-opacity="1" cx="58" cy="61" r="49" fill="#f1fff8" stroke="none" stroke-width="3.4" stroke-linecap="round" stroke-linejoin="round" />
      <path id="icon-handoff-artifact-card" class="illustrated-part illustrated-artifact-card" data-rest-opacity="1" d="M33 14h36l16 16v51H33Z" fill="#ffffff" stroke="#24324a" stroke-width="3.4" stroke-linecap="round" stroke-linejoin="round" />
      <path id="icon-handoff-artifact-corner" class="illustrated-part illustrated-artifact-corner" data-rest-opacity="1" d="M69 14v17h16" fill="#c4b5fd" stroke="#24324a" stroke-width="2.8" stroke-linecap="round" stroke-linejoin="round" />
      <path id="icon-handoff-artifact-lines" class="illustrated-part illustrated-artifact-lines" data-rest-opacity="1" d="M44 43h29M44 55h29M44 67h20" fill="none" stroke="#8b5cf6" stroke-width="3" stroke-linecap="round" stroke-linejoin="round" />
      <path id="icon-handoff-emergence-track" class="illustrated-part illustrated-emergence-track" data-rest-opacity="1" d="M59 79v17" fill="none" stroke="#0e7490" stroke-width="4" stroke-linecap="round" stroke-linejoin="round" />
      <path id="icon-handoff-delivery-tray" class="illustrated-part illustrated-delivery-tray" data-rest-opacity="1" d="M13 75h29l8 10h18l8-10h29l-6 29H19Z" fill="#7dd3fc" stroke="#24324a" stroke-width="3.4" stroke-linecap="round" stroke-linejoin="round" />
      <path id="icon-handoff-delivery-lip" class="illustrated-part illustrated-delivery-lip" data-rest-opacity="1" d="M19 96h80M42 75l8 10h18l8-10" fill="none" stroke="#24324a" stroke-width="3" stroke-linecap="round" stroke-linejoin="round" />
    </g>
  </g>
</g>

  <text x="901.0" y="561.0" text-anchor="middle" fill="#172033">
<tspan x="901.0" dy="18" class="node-title">Handoff</tspan>
<tspan x="901.0" dy="17" class="node-caption">sales task</tspan>
</text>
</g>
<style>
* { animation: none !important; transition: none !important; }
.edge-flow, .edge-particle, .edge-arrow-particle, .node-burst, .node-glow,
.icon-breathe-halo, #title-highlight { display: none !important; }
</style></svg>
