<svg xmlns="http://www.w3.org/2000/svg" viewBox="0 0 96 96" role="img" focusable="false" aria-label="Scanning entry gateway icon" data-icon="gateway">
  <g data-part="body">
    <g data-part="gate">
      <path d="M 20 79 V 44 C 20 25 31 15 48 15 C 65 15 76 25 76 44 V 79 H 62 V 44 C 62 34 57 29 48 29 C 39 29 34 34 34 44 V 79 Z" fill="var(--icon-surface-main, #fffaf2)" stroke="var(--icon-stroke, #14213d)" stroke-width="2.125" stroke-linejoin="round" data-stroke-role="outer"/>
    </g>
    <g data-part="scanner">
      <rect x="38" y="38" width="20" height="28" rx="10" fill="var(--icon-surface-secondary, #eee9ff)" stroke="var(--icon-stroke, #14213d)" stroke-width="2.125" data-stroke-role="outer"/>
      <line x1="41" y1="49" x2="55" y2="49" stroke="var(--icon-accent-secondary, #45c5bd)" stroke-width="2.125" stroke-linecap="round" data-stroke-role="inner"/>
    </g>
    <g data-part="core">
      <circle cx="48" cy="57" r="5" fill="var(--icon-surface-contrast, #14213d)"/>
      <circle cx="48" cy="57" r="2.5" fill="var(--icon-accent-secondary, #45c5bd)"/>
    </g>
    <g data-part="input">
      <path d="M 37 69 H 43 L 47 73 L 43 77 H 37" fill="var(--icon-accent, #7c5ce7)" stroke="var(--icon-stroke, #14213d)" stroke-width="1.375" stroke-linejoin="round" data-stroke-role="inner"/>
    </g>
    <g data-part="output">
      <path d="M 49 69 H 55 L 59 73 L 55 77 H 49" fill="var(--icon-accent-secondary, #45c5bd)" stroke="var(--icon-stroke, #14213d)" stroke-width="1.375" stroke-linejoin="round" data-stroke-role="inner"/>
    </g>
    <g data-part="indicator">
      <circle cx="69" cy="29" r="4.5" fill="var(--icon-surface-contrast, #14213d)"/>
      <circle cx="69" cy="29" r="2.2" fill="var(--icon-accent-secondary, #45c5bd)"/>
    </g>
  </g>
</svg>
